<?xml version="1.0" standalone="no"?>
<!DOCTYPE svg PUBLIC "-//W3C//DTD SVG 20010904//EN"
 "http://www.w3.org/TR/2001/REC-SVG-20010904/DTD/svg10.dtd">
<svg version="1.0" xmlns="http://www.w3.org/2000/svg"
 width="500.000000pt" height="500.000000pt" viewBox="0 0 500.000000 500.000000"
 preserveAspectRatio="xMidYMid meet">

<g transform="translate(0.000000,500.000000) scale(0.100000,-0.100000)"
fill="#000000" stroke="none">
<path d="M1340 4160 l0 -190 43 0 c23 0 79 -3 125 -7 l82 -6 0 -1051 c0 -934
-2 -1054 -16 -1074 -24 -35 -53 -46 -154 -57 l-95 -10 -3 -178 -2 -178 757 4
c730 4 762 4 857 25 414 89 641 276 728 595 29 107 36 318 14 427 -52 259
-228 436 -525 526 -9 3 11 20 50 44 176 105 289 259 329 448 16 78 8 272 -15
357 -55 204 -189 348 -400 429 -201 76 -330 86 -1141 86 l-634 0 0 -190z
m1393 -243 c165 -56 235 -130 258 -276 27 -175 -44 -346 -174 -421 -111 -64
-157 -73 -434 -78 l-253 -4 0 402 0 402 278 -5 c219 -3 287 -8 325 -20z m45
-1191 c146 -38 250 -117 305 -233 27 -59 31 -80 35 -176 4 -83 1 -123 -13
-174 -23 -86 -82 -171 -148 -217 -121 -83 -246 -106 -589 -106 l-238 0 0 466
0 466 293 -5 c224 -3 307 -8 355 -21z"/>
<path d="M1706 1164 c-9 -8 -16 -22 -16 -29 0 -16 27 -45 41 -45 25 0 49 23
49 45 0 14 -8 29 -19 35 -27 14 -37 13 -55 -6z"/>
<path d="M1840 1155 c0 -16 6 -25 15 -25 13 0 15 -27 15 -180 l0 -180 25 -10
c44 -17 119 -20 155 -7 91 32 119 207 44 278 -20 18 -36 24 -72 24 -26 0 -55
-4 -64 -9 -16 -7 -18 -1 -18 63 l0 71 -50 0 c-47 0 -50 -2 -50 -25z m200 -165
c19 -19 24 -49 20 -115 -4 -61 -44 -94 -94 -76 -25 10 -26 13 -26 95 0 76 2
86 22 100 30 21 54 20 78 -4z"/>
<path d="M2180 1157 c0 -16 7 -26 20 -30 19 -5 20 -14 20 -162 0 -148 -1 -157
-20 -162 -13 -3 -20 -14 -20 -29 0 -23 3 -24 70 -24 68 0 70 1 70 25 0 15 -6
25 -15 25 -12 0 -15 30 -17 188 l-3 187 -52 3 c-50 3 -53 2 -53 -21z"/>
<path d="M2392 1168 c-27 -27 -4 -78 37 -78 14 0 41 29 41 45 0 35 -53 58 -78
33z"/>
<path d="M2850 1156 c0 -15 7 -26 20 -29 19 -5 20 -14 20 -165 0 -151 -1 -160
-20 -165 -12 -3 -20 -14 -20 -26 0 -19 6 -21 70 -21 68 0 70 1 70 25 0 16 -6
25 -15 25 -13 0 -15 28 -15 190 l0 190 -55 0 c-51 0 -55 -2 -55 -24z"/>
<path d="M3066 1164 c-9 -8 -16 -22 -16 -29 0 -16 27 -45 41 -45 45 0 67 60
30 80 -27 14 -37 13 -55 -6z"/>
<path d="M1310 1127 c0 -16 7 -26 20 -30 19 -5 20 -14 20 -147 0 -133 -1 -142
-20 -147 -13 -3 -20 -14 -20 -29 0 -24 1 -24 98 -24 110 0 155 10 188 41 46
44 40 132 -11 159 l-24 13 24 29 c34 40 32 80 -4 120 l-29 33 -121 4 -121 3 0
-25z m206 -45 c6 -4 14 -16 18 -28 10 -33 -22 -64 -72 -71 l-42 -6 0 57 0 56
43 0 c23 0 47 -4 53 -8z m16 -169 c22 -20 24 -66 2 -87 -10 -10 -33 -16 -65
-16 l-49 0 0 60 0 60 47 0 c29 0 53 -6 65 -17z"/>
<path d="M3262 1085 c-7 -14 -23 -30 -37 -35 -31 -12 -35 -50 -5 -50 19 0 20
-7 20 -94 0 -52 4 -106 9 -119 12 -31 68 -51 114 -42 43 10 46 12 40 35 -4 16
-14 20 -43 20 -47 0 -50 7 -50 116 l0 84 40 0 c36 0 40 3 40 25 0 23 -4 25
-40 25 -38 0 -40 2 -40 30 0 38 -32 41 -48 5z"/>
<path d="M2611 1043 c-51 -25 -71 -66 -71 -144 0 -80 26 -126 82 -147 100 -38
188 38 188 162 0 113 -100 178 -199 129z m105 -54 c15 -17 19 -36 19 -91 0
-61 -3 -72 -24 -89 -31 -25 -47 -24 -76 6 -21 20 -25 34 -25 88 0 50 4 68 20
85 26 28 61 28 86 1z"/>
<path d="M3511 1038 c-53 -36 -73 -81 -69 -155 5 -78 28 -113 88 -132 36 -12
52 -12 89 -2 57 15 66 23 52 50 -10 17 -16 19 -31 11 -22 -12 -80 -13 -96 -2
-11 7 -34 45 -34 56 0 3 10 6 23 6 41 0 99 21 123 45 29 29 32 83 6 115 -28
35 -107 39 -151 8z m103 -51 c9 -15 6 -23 -17 -43 -17 -14 -41 -24 -59 -24
-28 0 -30 2 -23 28 14 59 73 82 99 39z"/>
<path d="M1670 1025 c0 -18 5 -25 20 -25 19 0 20 -7 20 -96 0 -87 -2 -96 -20
-101 -13 -3 -20 -14 -20 -29 0 -23 3 -24 70 -24 68 0 70 1 70 25 0 16 -6 25
-15 25 -13 0 -15 21 -15 125 l0 125 -55 0 c-52 0 -55 -1 -55 -25z"/>
<path d="M2360 1027 c0 -16 7 -26 20 -30 18 -5 20 -14 20 -97 0 -83 -2 -92
-20 -97 -13 -3 -20 -14 -20 -29 0 -23 3 -24 70 -24 68 0 70 1 70 25 0 19 -5
25 -21 25 -19 0 -20 5 -18 123 l1 122 -51 3 c-48 3 -51 2 -51 -21z"/>
<path d="M3030 1025 c0 -18 5 -25 20 -25 19 0 20 -7 20 -96 0 -87 -2 -96 -20
-101 -13 -3 -20 -14 -20 -29 0 -23 3 -24 70 -24 68 0 70 1 70 25 0 16 -6 25
-15 25 -13 0 -15 21 -15 125 l0 125 -55 0 c-52 0 -55 -1 -55 -25z"/>
</g>
</svg>
