<?xml version="1.0" standalone="no"?>
<!DOCTYPE svg PUBLIC "-//W3C//DTD SVG 20010904//EN"
 "http://www.w3.org/TR/2001/REC-SVG-20010904/DTD/svg10.dtd">
<svg version="1.0" xmlns="http://www.w3.org/2000/svg"
 width="465.000000pt" height="175.000000pt" viewBox="0 0 465.000000 175.000000"
 preserveAspectRatio="xMidYMid meet">

<g transform="translate(0.000000,175.000000) scale(0.100000,-0.100000)"
fill="#000000" stroke="none">
<path d="M20 1625 l0 -105 38 0 c20 0 54 -3 75 -6 l37 -7 0 -597 c0 -690 8
-638 -95 -649 l-60 -6 -3 -102 -3 -103 398 0 c427 0 535 9 649 51 215 80 324
249 311 479 -9 161 -76 268 -209 334 -39 20 -77 36 -84 36 -24 0 -15 15 20 34
55 29 126 106 155 166 37 78 42 211 12 309 -40 132 -151 220 -323 255 -63 13
-153 16 -498 16 l-420 0 0 -105z m797 -139 c105 -28 153 -90 153 -201 0 -71
-23 -126 -70 -172 -52 -51 -106 -65 -272 -70 l-148 -5 0 231 0 231 143 0 c89
0 161 -5 194 -14z m64 -690 c107 -39 161 -120 161 -239 0 -92 -22 -146 -78
-196 -66 -57 -127 -71 -322 -71 l-162 0 0 266 0 266 178 -4 c131 -4 189 -10
223 -22z"/>
<path d="M1500 750 c-24 -24 -26 -57 -4 -88 20 -28 83 -31 107 -4 22 25 21 75
-1 95 -25 23 -78 21 -102 -3z"/>
<path d="M1710 731 c0 -36 3 -40 28 -43 l27 -3 3 -278 2 -278 37 -16 c60 -24
184 -29 237 -9 87 33 136 125 136 252 0 104 -36 175 -105 212 -40 20 -137 19
-170 -2 l-25 -16 0 110 0 110 -85 0 -85 0 0 -39z m313 -251 c68 -54 55 -265
-19 -299 -27 -12 -67 -14 -101 -5 -23 6 -23 9 -23 150 0 136 1 144 22 158 31
22 90 20 121 -4z"/>
<path d="M2250 730 c0 -36 3 -40 24 -40 13 0 27 -7 30 -16 3 -9 6 -118 6 -244
0 -194 -2 -231 -16 -244 -8 -9 -22 -16 -30 -16 -9 0 -14 -11 -14 -35 l0 -35
110 0 110 0 0 35 c0 29 -4 36 -25 41 l-25 6 0 294 0 294 -85 0 -85 0 0 -40z"/>
<path d="M2580 750 c-24 -24 -26 -57 -4 -88 20 -28 83 -31 107 -4 22 25 21 75
-1 95 -25 23 -78 21 -102 -3z"/>
<path d="M3302 733 c2 -30 8 -38 28 -43 l25 -6 3 -243 c2 -253 0 -271 -39
-271 -15 0 -19 -7 -19 -35 l0 -35 111 0 110 0 -3 37 c-2 31 -7 39 -25 41 l-23
3 0 295 0 294 -86 0 -85 0 3 -37z"/>
<path d="M3637 752 c-22 -25 -21 -75 1 -95 29 -26 88 -22 108 8 19 30 11 81
-16 95 -29 16 -75 12 -93 -8z"/>
<path d="M3947 630 c-11 -24 -32 -47 -50 -57 -38 -19 -47 -30 -47 -60 0 -20 5
-23 35 -23 l35 0 0 -160 c0 -98 4 -169 11 -184 24 -51 138 -74 214 -42 34 15
35 15 20 48 -8 18 -20 31 -27 30 -101 -27 -108 -17 -108 164 l0 144 54 0 c52
0 54 1 60 31 3 17 6 35 6 40 0 5 -27 9 -60 9 l-60 0 0 50 c0 50 0 50 -32 50
-29 0 -36 -6 -51 -40z"/>
<path d="M2978 579 c-60 -14 -115 -56 -140 -108 -19 -38 -23 -62 -23 -141 1
-97 12 -136 54 -184 70 -80 241 -73 314 13 62 74 75 242 26 332 -40 72 -140
110 -231 88z m97 -85 c66 -26 72 -254 8 -304 -36 -28 -94 -26 -120 3 -57 60
-57 224 -1 284 22 23 75 31 113 17z"/>
<path d="M4390 577 c-25 -7 -56 -20 -68 -29 -67 -46 -108 -153 -99 -255 14
-145 95 -212 242 -200 49 3 112 24 133 43 2 1 -1 19 -8 39 -9 28 -16 35 -29
29 -63 -26 -106 -33 -142 -24 -42 12 -79 51 -79 85 0 20 6 23 66 28 82 8 147
38 174 81 25 41 27 121 4 154 -33 48 -119 69 -194 49z m94 -83 c9 -8 16 -28
16 -43 0 -45 -47 -76 -126 -82 -38 -3 -39 -3 -36 26 9 85 100 146 146 99z"/>
<path d="M1452 533 c2 -30 8 -38 28 -43 l25 -6 3 -143 c3 -149 -2 -171 -39
-171 -15 0 -19 -7 -19 -35 l0 -35 110 0 110 0 0 35 c0 29 -4 36 -25 41 l-25 6
0 194 0 194 -86 0 -85 0 3 -37z"/>
<path d="M2532 533 c2 -30 8 -38 28 -43 l25 -6 3 -143 c3 -149 -2 -171 -39
-171 -15 0 -19 -7 -19 -35 l0 -35 111 0 110 0 -3 37 c-2 31 -7 39 -25 41 -23
3 -23 4 -23 198 l0 194 -86 0 -85 0 3 -37z"/>
<path d="M3592 533 c2 -31 7 -39 26 -41 22 -3 22 -5 22 -158 l0 -154 -30 -6
c-26 -6 -30 -11 -30 -40 l0 -34 115 0 115 0 0 35 c0 31 -3 36 -30 42 l-30 6 0
193 0 194 -81 0 -80 0 3 -37z"/>
</g>
</svg>
